<?xml version="1.0" encoding="UTF-8"?>
<svg id="Capa_1" data-name="Capa 1" xmlns="http://www.w3.org/2000/svg" viewBox="0 0 100 72.73">
  <defs>
    <style>
      .cls-1 {
        fill: #fff;
      }
    </style>
  </defs>
  <path class="cls-1" d="M59.09,40.91c-3.79,0-7.01-1.33-9.66-3.98s-3.98-5.87-3.98-9.66,1.33-7.01,3.98-9.66c2.65-2.65,5.87-3.98,9.66-3.98s7.01,1.33,9.66,3.98c2.65,2.65,3.98,5.87,3.98,9.66s-1.33,7.01-3.98,9.66c-2.65,2.65-5.87,3.98-9.66,3.98ZM27.27,54.55c-2.5,0-4.64-.89-6.42-2.67-1.78-1.78-2.67-3.92-2.67-6.42V9.09c0-2.5.89-4.64,2.67-6.42,1.78-1.78,3.92-2.67,6.42-2.67h63.64c2.5,0,4.64.89,6.42,2.67s2.67,3.92,2.67,6.42v36.36c0,2.5-.89,4.64-2.67,6.42s-3.92,2.67-6.42,2.67H27.27ZM36.36,45.45h45.45c0-2.5.89-4.64,2.67-6.42s3.92-2.67,6.42-2.67v-18.18c-2.5,0-4.64-.89-6.42-2.67s-2.67-3.92-2.67-6.42h-45.45c0,2.5-.89,4.64-2.67,6.42s-3.92,2.67-6.42,2.67v18.18c2.5,0,4.64.89,6.42,2.67s2.67,3.92,2.67,6.42ZM86.36,72.73H9.09c-2.5,0-4.64-.89-6.42-2.67-1.78-1.78-2.67-3.92-2.67-6.42V13.64h9.09v50h77.27v9.09ZM27.27,45.45V9.09v36.36Z"/>
</svg>