<?xml version="1.0" encoding="UTF-8"?>
<svg id="Capa_1" data-name="Capa 1" xmlns="http://www.w3.org/2000/svg" viewBox="0 0 93.71 200">
  <defs>
    <style>
      .cls-1 {
        fill: #fff;
      }
    </style>
  </defs>
  <path class="cls-1" d="M26.91,189.74v-59.83h-9.97c-2.83,0-5.19-.96-7.1-2.87s-2.87-4.28-2.87-7.1v-49.86c0-5.48,1.95-10.18,5.86-14.08,3.91-3.91,8.6-5.86,14.08-5.86h39.89c5.48,0,10.18,1.95,14.08,5.86,3.91,3.91,5.86,8.6,5.86,14.08v49.86c0,2.83-.96,5.19-2.87,7.1s-4.28,2.87-7.1,2.87h-9.97v59.83c0,2.83-.96,5.19-2.87,7.1s-4.28,2.87-7.1,2.87h-19.94c-2.83,0-5.19-.96-7.1-2.87-1.91-1.91-2.87-4.28-2.87-7.1ZM46.86,40.17c-5.48,0-10.18-1.95-14.08-5.86s-5.86-8.6-5.86-14.08,1.95-10.18,5.86-14.08S41.37.29,46.86.29s10.18,1.95,14.08,5.86c3.91,3.91,5.86,8.6,5.86,14.08s-1.95,10.18-5.86,14.08c-3.91,3.91-8.6,5.86-14.08,5.86Z"/>
</svg>