<?xml version="1.0" encoding="UTF-8"?>
<svg id="Capa_1" data-name="Capa 1" xmlns="http://www.w3.org/2000/svg" viewBox="0 0 100 100">
  <defs>
    <style>
      .cls-1 {
        fill: #fff;
      }
    </style>
  </defs>
  <path class="cls-1" d="M10,80v-25,25ZM0,55l10.5-30c.5-1.5,1.4-2.71,2.69-3.62,1.29-.92,2.73-1.37,4.31-1.37h22.87c-.25,1.67-.38,3.33-.38,5s.13,3.33.38,5h-21.12l-5.25,15h32.38c1.42,2,3,3.85,4.75,5.56s3.71,3.19,5.88,4.44H10v25h70v-20.37c1.75-.25,3.46-.62,5.12-1.12s3.29-1.12,4.88-1.87v38.37c0,1.42-.48,2.6-1.44,3.56s-2.15,1.44-3.56,1.44h-5c-1.42,0-2.6-.48-3.56-1.44s-1.44-2.15-1.44-3.56v-5H15v5c0,1.42-.48,2.6-1.44,3.56s-2.15,1.44-3.56,1.44h-5c-1.42,0-2.6-.48-3.56-1.44s-1.44-2.15-1.44-3.56v-40ZM67.5,75c2.08,0,3.85-.73,5.31-2.19s2.19-3.23,2.19-5.31-.73-3.85-2.19-5.31-3.23-2.19-5.31-2.19-3.85.73-5.31,2.19-2.19,3.23-2.19,5.31.73,3.85,2.19,5.31,3.23,2.19,5.31,2.19ZM22.5,75c2.08,0,3.85-.73,5.31-2.19s2.19-3.23,2.19-5.31-.73-3.85-2.19-5.31-3.23-2.19-5.31-2.19-3.85.73-5.31,2.19-2.19,3.23-2.19,5.31.73,3.85,2.19,5.31,3.23,2.19,5.31,2.19ZM75,50c-6.92,0-12.81-2.44-17.69-7.31-4.88-4.87-7.31-10.77-7.31-17.69s2.42-12.71,7.25-17.62c4.83-4.92,10.75-7.37,17.75-7.37s12.81,2.44,17.69,7.31,7.31,10.77,7.31,17.69-2.44,12.81-7.31,17.69c-4.88,4.87-10.77,7.31-17.69,7.31ZM72.5,30h5V10h-5v20ZM75,40c.67,0,1.25-.25,1.75-.75s.75-1.08.75-1.75-.25-1.25-.75-1.75-1.08-.75-1.75-.75-1.25.25-1.75.75-.75,1.08-.75,1.75.25,1.25.75,1.75,1.08.75,1.75.75Z"/>
</svg>