<?xml version="1.0" encoding="UTF-8"?>
<svg id="Capa_1" data-name="Capa 1" xmlns="http://www.w3.org/2000/svg" viewBox="0 0 93.71 200">
  <defs>
    <style>
      .cls-1 {
        fill: #fff;
      }
    </style>
  </defs>
  <path class="cls-1" d="M26.91,189.74v-49.86h-15.21c-3.49,0-6.23-1.45-8.23-4.36s-2.33-6.02-1-9.35l24.93-63.07c1.66-3.99,4.24-7.15,7.73-9.47,3.49-2.33,7.4-3.49,11.72-3.49s8.23,1.16,11.72,3.49,6.07,5.48,7.73,9.47l24.93,63.07c1.33,3.32,1,6.44-1,9.35-1.99,2.91-4.74,4.36-8.23,4.36h-15.21v49.86c0,2.83-.96,5.19-2.87,7.1s-4.28,2.87-7.1,2.87h-19.94c-2.83,0-5.19-.96-7.1-2.87s-2.87-4.28-2.87-7.1ZM46.86,40.17c-5.48,0-10.18-1.95-14.08-5.86-3.91-3.91-5.86-8.6-5.86-14.08s1.95-10.18,5.86-14.08c3.91-3.91,8.6-5.86,14.08-5.86s10.18,1.95,14.08,5.86,5.86,8.6,5.86,14.08-1.95,10.18-5.86,14.08-8.6,5.86-14.08,5.86Z"/>
</svg>