<?xml version="1.0" encoding="UTF-8"?>
<svg id="Capa_1" data-name="Capa 1" xmlns="http://www.w3.org/2000/svg" viewBox="0 0 100 89.47">
  <defs>
    <style>
      .cls-1 {
        fill: #fff;
      }
    </style>
  </defs>
  <path class="cls-1" d="M0,84.21v-14.74c0-2.98.77-5.72,2.3-8.22,1.54-2.5,3.57-4.41,6.12-5.72,5.44-2.72,10.96-4.76,16.58-6.12,5.61-1.36,11.32-2.04,17.11-2.04,3.25,0,6.45.2,9.61.59,3.16.39,6.32,1.03,9.47,1.91l-8.82,8.95c-1.75-.26-3.46-.48-5.13-.66-1.67-.18-3.38-.26-5.13-.26-4.91,0-9.78.59-14.61,1.78-4.82,1.18-9.61,2.96-14.34,5.33-.79.44-1.43,1.05-1.91,1.84-.48.79-.72,1.67-.72,2.63v4.21h31.58v10.53H0ZM52.63,89.47v-16.18l29.08-28.95c.79-.79,1.67-1.36,2.63-1.71.96-.35,1.93-.53,2.89-.53,1.05,0,2.06.2,3.03.59.96.39,1.84.99,2.63,1.78l4.87,4.87c.7.79,1.25,1.67,1.64,2.63s.59,1.93.59,2.89-.18,1.95-.53,2.96c-.35,1.01-.92,1.91-1.71,2.7l-28.95,28.95h-16.18ZM92.11,54.87l-4.87-4.87,4.87,4.87ZM60.53,81.58h5l15.92-16.05-2.37-2.5-2.5-2.37-16.05,15.92v5ZM79.08,63.03l-2.5-2.37,4.87,4.87-2.37-2.5ZM42.11,42.11c-5.79,0-10.75-2.06-14.87-6.18-4.12-4.12-6.18-9.08-6.18-14.87s2.06-10.75,6.18-14.87C31.36,2.06,36.32,0,42.11,0s10.75,2.06,14.87,6.18,6.18,9.08,6.18,14.87-2.06,10.75-6.18,14.87c-4.12,4.12-9.08,6.18-14.87,6.18ZM42.11,31.58c2.89,0,5.37-1.03,7.43-3.09s3.09-4.54,3.09-7.43-1.03-5.37-3.09-7.43c-2.06-2.06-4.54-3.09-7.43-3.09s-5.37,1.03-7.43,3.09c-2.06,2.06-3.09,4.54-3.09,7.43s1.03,5.37,3.09,7.43c2.06,2.06,4.54,3.09,7.43,3.09Z"/>
</svg>